<svg xmlns="http://www.w3.org/2000/svg" xmlns:xlink="http://www.w3.org/1999/xlink" xmlns:serif="http://www.serif.com/" viewBox="0 0 64 80" version="1.1" xml:space="preserve" style="" x="0px" y="0px" fill-rule="evenodd" clip-rule="evenodd" stroke-linejoin="round" stroke-miterlimit="1.41421"><g><path d="M45.305,43.508C44.411,43.225 43.486,43.058 42.55,43.01L37,43.002L37,38.655C37.784,38.283 38.531,37.837 39.23,37.323C41.49,40.321 43.517,40.91 43.759,40.971C43.838,40.99 43.92,41 44.001,41C44.43,41 44.814,40.723 44.949,40.315C46.286,35.956 47.209,31.48 47.706,26.946C48.53,26.189 48.999,25.119 49,24C48.995,23.094 48.679,22.216 48.105,21.514C48.195,19.317 48.159,17.116 47.997,14.923C46.939,1.159 32.149,1 32,1C31.851,1 17.062,1.159 16.003,14.923C15.841,17.115 15.805,19.314 15.895,21.51C15.32,22.213 15.003,23.092 15,24C15.001,25.12 15.47,26.189 16.294,26.947C16.791,31.48 17.714,35.956 19.051,40.315C19.186,40.723 19.57,41 19.999,41C20.081,41 20.162,40.99 20.241,40.971C20.483,40.91 22.51,40.322 24.771,37.323C25.47,37.837 26.216,38.283 27,38.655L27,43L22,43L21.392,43.012C15.598,43.342 11.007,48.196 11,54L11,62C11,62.549 11.451,63 12,63L52,63C52.549,63 53,62.549 53,62L53,54C53.013,49.207 49.88,44.936 45.305,43.508ZM39.941,51.797L37.928,54.918C37.747,55.198 37.718,55.55 37.85,55.856L38.943,58.396L38.236,61L37.5,61L37.5,45L38.607,45L39.941,51.797ZM25.764,61L25.057,58.397L26.15,55.856C26.282,55.55 26.253,55.198 26.072,54.918L24.059,51.797L25.392,45.004L26.5,45.002L26.5,61L25.764,61ZM17.824,25.619C17.308,25.242 17.002,24.64 17.002,24.001C17.002,22.905 17.903,22.002 19,22L19,26C18.577,26.003 18.165,25.869 17.824,25.619L17.824,25.619ZM46.413,22.587C46.789,22.962 47,23.471 47,24.001C47,24.644 46.69,25.249 46.168,25.624C45.829,25.871 45.42,26.003 45,26L45,22C45.53,22.001 46.039,22.212 46.413,22.587L46.413,22.587ZM43,21L43,23L41,23L41,22C41,21.451 40.549,21 40,21L34,21C33.451,21 33,21.451 33,22L33,23L31,23L31,22C31,21.451 30.549,21 30,21L24,21C23.451,21 23,21.451 23,22L23,23L21,23L21,17.857C22.393,17.17 23.538,16.067 24.277,14.701C28.303,18.203 33.465,20.129 38.8,20.12C39.503,20.12 40.226,20.082 41.01,20.005L43,19.805L43,21ZM39,23L39,25L35,25L35,23L39,23ZM29,23L29,25L25,25L25,23L29,23ZM21,25L23,25L23,26C23,26.549 23.451,27 24,27L30,27C30.549,27 31,26.549 31,26L31,25L33,25L33,26C33,26.549 33.451,27 34,27L40,27C40.549,27 41,26.549 41,26L41,25L43,25L43,25.96C42.998,29.484 41.452,32.837 38.773,35.126C37.831,35.948 36.765,36.613 35.613,37.098C34.462,37.58 33.243,37.883 32,37.996C31.687,37.967 31.377,37.927 31.069,37.875C30.148,37.72 29.249,37.459 28.388,37.098C27.233,36.612 26.165,35.945 25.222,35.121C22.545,32.832 21.001,29.482 21,25.96L21,25ZM30.685,49.831L28.5,51.774L28.5,46.553L30.685,49.831ZM33.314,49.831L35.5,46.553L35.5,51.774L33.314,49.831ZM30.189,39.732C30.324,39.761 30.458,39.791 30.594,39.815C31.03,39.893 31.47,39.958 31.915,39.996C31.972,40.001 32.028,40.001 32.085,39.996C32.53,39.958 32.97,39.893 33.406,39.815C33.542,39.791 33.676,39.761 33.81,39.733C34.128,39.666 34.442,39.589 34.753,39.501C34.835,39.478 34.919,39.465 35,39.44L35,43.697L32,48.197L29,43.697L29,39.44C29.081,39.465 29.166,39.478 29.248,39.501C29.559,39.589 29.873,39.666 30.189,39.732ZM28.5,54.449L29.5,53.56L29.5,61L28.5,61L28.5,54.449ZM35.5,54.449L35.5,61L34.5,61L34.5,53.56L35.5,54.449ZM43.382,38.593C42.356,37.905 41.464,37.035 40.752,36.025C40.847,35.933 40.932,35.832 41.024,35.737C41.125,35.633 41.225,35.528 41.322,35.421C41.565,35.155 41.796,34.881 42.015,34.598C42.078,34.517 42.147,34.44 42.208,34.357C42.478,33.995 42.729,33.622 42.962,33.237C43.022,33.138 43.074,33.036 43.132,32.935C43.302,32.638 43.462,32.336 43.61,32.028C43.674,31.895 43.735,31.761 43.795,31.626C43.933,31.314 44.058,30.996 44.173,30.675C44.212,30.566 44.256,30.459 44.292,30.348C44.433,29.92 44.554,29.485 44.654,29.044C44.675,28.952 44.688,28.859 44.706,28.766C44.758,28.512 44.813,28.258 44.851,28L45,28C45.19,28 45.38,27.987 45.568,27.96C45.098,31.552 44.367,35.106 43.382,38.593ZM17.997,15.077C18.913,3.171 31.468,3.002 31.999,3C32.532,3.002 45.087,3.171 46.003,15.077C46.131,16.741 46.181,18.447 46.151,20.169C46.069,20.144 45.984,20.132 45.9,20.113C45.833,20.097 45.767,20.08 45.698,20.068C45.468,20.025 45.234,20.002 45,20L45,18.7C45,18.7 45,18.7 45,18.7C45,18.151 44.549,17.7 44,17.7C43.967,17.7 43.933,17.702 43.9,17.705L40.811,18.014C40.094,18.085 39.436,18.12 38.799,18.12C33.487,18.127 28.383,16.028 24.612,12.287C24.425,12.103 24.173,12 23.91,12C23.472,12 23.082,12.288 22.954,12.707C22.468,14.315 21.275,15.617 19.716,16.242C19.705,16.246 19.604,16.291 19.592,16.296C19.232,16.457 19,16.816 19,17.21L19,20C18.765,20.002 18.53,20.025 18.299,20.068C18.234,20.08 18.171,20.096 18.107,20.111C18.021,20.131 17.933,20.143 17.849,20.169C17.819,18.447 17.869,16.741 17.997,15.077ZM20.618,38.594C19.633,35.107 18.902,31.553 18.432,27.96C18.62,27.987 18.81,28 19,28L19.148,28C19.186,28.257 19.241,28.511 19.293,28.765C19.312,28.858 19.325,28.952 19.346,29.045C19.445,29.485 19.565,29.918 19.707,30.345C19.744,30.459 19.79,30.57 19.83,30.684C19.943,31 20.066,31.312 20.202,31.619C20.263,31.759 20.327,31.898 20.393,32.035C20.537,32.334 20.692,32.627 20.857,32.915C20.919,33.024 20.976,33.135 21.041,33.242C21.271,33.622 21.519,33.99 21.785,34.348C21.854,34.44 21.93,34.528 22.001,34.618C22.214,34.889 22.435,35.154 22.667,35.41C22.77,35.522 22.874,35.632 22.98,35.741C23.071,35.835 23.155,35.934 23.248,36.025C22.535,37.034 21.644,37.905 20.618,38.594ZM13,54C13.011,49.273 16.732,45.313 21.45,45.01L23.353,45.007L22.018,51.808C21.969,52.062 22.019,52.325 22.16,52.542L24.103,55.554L23.082,57.926C22.992,58.133 22.976,58.366 23.035,58.584L23.692,61L20,61L20,54.46C20,53.911 19.549,53.46 19,53.46C18.451,53.46 18,53.911 18,54.46L18,61L13,61L13,54ZM31.5,61L31.5,51.782L32,51.337L32.5,51.782L32.5,61L31.5,61ZM51,61L46,61L46,54.46C46,53.911 45.549,53.46 45,53.46C44.451,53.46 44,53.911 44,54.46L44,61L40.308,61L40.965,58.584C41.024,58.366 41.008,58.133 40.918,57.926L39.897,55.554L41.84,52.542C41.981,52.325 42.032,52.061 41.982,51.808L40.645,45L42,45L42.491,45.008C47.233,45.28 50.99,49.25 51,54L51,61Z" style="" fill-rule="nonzero"/></g><text x="0" y="79" fill="#000000" font-size="5px" font-weight="bold" font-family="'Helvetica Neue', Helvetica, Arial-Unicode, Arial, Sans-serif">Created by Andreas Vögele</text><text x="0" y="84" fill="#000000" font-size="5px" font-weight="bold" font-family="'Helvetica Neue', Helvetica, Arial-Unicode, Arial, Sans-serif">from the Noun Project</text></svg>